<svg width="100" height="100" viewBox="0 0 100 100" fill="none" xmlns="http://www.w3.org/2000/svg">
<path d="M28.3846 9.08808C28.7959 9.01279 29.3504 9.05796 29.7832 9.05649L32.5246 9.06494L41.0237 9.04355L63.1592 9.06826C65.4678 9.08711 68.0293 8.9852 70.3159 9.08095C70.9907 9.68906 71.7319 10.536 72.3765 11.2069C76.1494 15.1362 79.9224 19.0958 83.6401 23.0766L86.5366 26.1452L88.5835 28.3139C88.8022 28.547 89.6304 29.3515 89.6631 29.5541C89.8394 30.647 89.7602 32.0709 89.7588 33.1818C88.7207 33.27 88.1377 33.2241 87.1177 33.211C86.0879 33.2005 85.0586 33.1956 84.0293 33.1964C81.6133 33.199 78.6943 33.3159 76.313 33.1903L76.3198 32.3529C75.7959 31.6994 75.2285 31.1953 74.6582 30.5937L71.188 26.9361C69.4023 25.0672 67.5508 22.9212 65.7017 21.1562C64.667 21.0219 62.2422 21.133 61.103 21.1248L49.1211 21.1306L37.1346 21.1377C35.5771 21.1429 33.133 21.0382 31.7013 21.1732C30.7657 22.0997 29.9442 22.8618 28.9777 23.7482C27.9631 24.6786 26.9334 25.9027 25.893 26.8263C24.8664 27.7376 23.9055 28.6686 22.9387 29.6428C22.6712 29.9124 22.2486 30.2845 22.0387 30.5605C21.9477 31.3724 21.9772 33.3057 21.9783 34.1544L21.9817 39.9563C21.9821 40.6003 22.0193 41.2903 22.0083 41.9164L32.6359 41.9081C34.3366 41.9113 36.7455 42.0095 38.4021 41.8828C38.8414 40.5408 39.363 39.4412 39.8673 38.14L39.9226 38.2793C39.9963 38.218 40.4085 37.6336 40.4786 37.5236L40.6306 37.631C40.8401 37.5834 40.8215 37.6121 40.9655 37.769C41.0062 37.8127 41.0467 37.8567 41.0869 37.9009C41.3137 37.8213 41.2416 37.8093 41.4336 37.8702C41.6435 38.2778 41.602 38.2641 42.0603 38.3753C42.3522 38.961 40.9789 41.5417 40.7204 42.257C40.5482 42.7334 40.1865 43.7138 39.9616 44.1494C39.4709 44.2939 36.7938 44.2362 36.1429 44.2296C32.7278 44.1886 29.3125 44.1887 25.8975 44.2299C24.9465 44.235 24.0152 44.2022 23.0612 44.2611C22.69 44.284 22.3477 44.2409 21.9734 44.3152C21.8766 44.5775 21.8518 45.3456 21.9526 45.5787L22.003 45.5181C21.9016 48.7852 21.9805 52.5435 21.9844 55.834L21.97 72.8794L21.9645 79.7651C21.9635 80.624 22.0238 82.2251 21.9527 83.0132C21.6164 83.5625 21.0655 84.0112 20.592 84.4668C19.8627 85.1553 19.1381 85.8486 18.4183 86.5469C16.6235 88.3154 14.909 90.1357 13.0656 91.8555C12.259 92.6079 11.685 93.2549 10.7857 93.9648C10.8799 93.3433 10.8246 91.9893 10.8282 91.2773L10.8301 85.021L10.8266 60.8203L10.8184 53.3203L10.8242 50.9443C10.8251 50.7002 10.8134 49.979 10.8395 49.7803C10.7728 48.7153 10.8206 47.0466 10.8193 45.9505L10.8295 37.7981L10.8138 29.9829C10.8136 28.8908 10.7598 27.1948 10.8324 26.1349C11.0953 25.6614 12.5331 24.4135 12.9991 23.9547L17.9076 19.1528L23.715 13.5089C24.7406 12.4995 25.7059 11.4191 26.8215 10.5004C27.3679 10.0504 27.8405 9.54341 28.3846 9.08808Z" fill="white"/>
<path d="M10.8395 49.7803C10.9353 49.3296 10.9165 48.3078 10.9168 47.822L10.9011 44.3424L10.9161 36.3126C10.9193 35.6068 10.9773 34.9302 10.8985 34.2162C10.8723 33.9789 10.9595 33.6652 10.9503 33.4254C10.9388 33.1228 10.882 32.8174 10.8776 32.5145C10.8938 32.2549 11.0591 32.0515 11.0834 31.716C11.1267 31.2108 11.1081 30.4648 11.3244 30.0106C11.5957 29.4409 11.7587 29.2938 11.698 28.6477C11.6696 28.3456 12.2251 27.8019 12.5115 27.6168L12.6278 27.6789L12.7124 27.67L12.7894 27.7567C12.7485 28.0511 12.4661 28.0903 12.4747 28.5153C12.6848 28.4685 12.6418 28.3831 12.8146 28.3217C13.3523 28.1306 13.361 27.7024 13.9853 27.6477C14.1297 27.7923 13.9629 28.1424 14.1031 28.4373C14.4461 28.6375 14.4788 28.1655 14.6202 27.9563C15.2246 27.9668 15.7492 28.3302 16.3303 28.4663C16.6305 28.5366 18.4519 28.6591 18.6083 28.7789L18.669 28.7181C18.9331 28.8095 19.8537 28.7484 20.3185 29.0221C20.5495 29.1581 21.1696 29.4881 21.282 29.783C21.2677 29.8248 21.254 29.8669 21.2409 29.9092C21.0883 30.4131 21.7838 30.5766 21.5933 31.0903C21.5292 31.2631 21.8487 31.8736 21.8569 32.126C21.8733 32.6266 21.8527 33.1372 21.8522 33.6426L21.8508 38.2919C21.8505 39.56 21.8243 40.7268 21.9394 41.9922L32.3484 41.9918L36.0551 41.9936C36.7121 41.9937 37.802 42.0257 38.4257 41.9446C38.5453 41.804 39.2556 39.9572 39.3473 39.6529C39.3714 39.5729 39.6534 39.2167 39.7216 39.1276C39.7454 38.7638 39.902 38.753 39.9226 38.2793C39.9963 38.218 40.4085 37.6336 40.4786 37.5236L40.6306 37.631C40.8401 37.5834 40.8215 37.6121 40.9655 37.769C41.0062 37.8127 41.0467 37.8567 41.0869 37.9009C41.3137 37.8213 41.2416 37.8093 41.4336 37.8702C41.6435 38.2778 41.602 38.2641 42.0603 38.3753C42.3522 38.961 40.9789 41.5417 40.7204 42.257C40.5482 42.7334 40.1865 43.7138 39.9616 44.1494C39.4709 44.2939 36.7938 44.2362 36.1429 44.2296C32.7278 44.1886 29.3125 44.1887 25.8975 44.2299C24.9465 44.235 24.0152 44.2022 23.0612 44.2611C22.69 44.284 22.3477 44.2409 21.9734 44.3152C21.8766 44.5775 21.8518 45.3456 21.9526 45.5787L22.003 45.5181C21.9016 48.7852 21.9805 52.5435 21.9844 55.834L21.97 72.8794L21.9645 79.7651C21.9635 80.624 22.0238 82.2251 21.9527 83.0132C21.6164 83.5625 21.0655 84.0112 20.592 84.4668C19.8627 85.1553 19.1381 85.8486 18.4183 86.5469C16.6235 88.3154 14.909 90.1357 13.0656 91.8555C12.259 92.6079 11.685 93.2549 10.7857 93.9648C10.8799 93.3433 10.8246 91.9893 10.8282 91.2773L10.8301 85.021L10.8266 60.8203L10.8184 53.3203L10.8242 50.9443C10.8251 50.7002 10.8134 49.979 10.8395 49.7803Z" fill="white"/>
<path d="M73.1782 53.9233C76.1094 54.0176 79.4131 53.9302 82.3926 53.937L86.5151 53.9287C87.3423 53.9341 88.5571 53.9814 89.3564 53.9282L89.4194 53.9233L89.4648 53.9688C89.3042 54.5288 87.4434 56.1724 86.98 56.644L77.1987 66.4478L72.0918 71.5679C71.7061 71.9487 70.6231 73.0957 70.2412 73.3257C69.5869 73.3726 68.6099 73.3403 67.9248 73.3398L63.5278 73.3394L49.4019 73.3374L33.0454 73.3413C32.9927 72.4131 33.06 70.7515 33.0584 69.7397L33.0645 61.2852C35.8781 61.21 39.0816 61.2822 41.9249 61.2822L58.2012 61.2813C60.6865 61.2813 63.2241 61.3145 65.7041 61.2881C66.7466 60.2603 67.7622 59.1494 68.772 58.0884C69.3286 57.6538 69.918 56.8149 70.4097 56.394C70.9941 55.8936 72.5659 54.1211 73.1782 53.9233Z" fill="white"/>
<path d="M43.042 30.455C43.4981 29.4025 43.874 28.284 44.3587 27.2379C44.4808 26.9746 44.5848 26.3948 44.8774 26.3462C45.0443 26.4901 45.7901 29.0385 45.8753 29.4069C46.0567 29.8029 46.294 30.6903 46.4254 31.1513C46.6708 32.0135 46.9253 32.8731 47.1889 33.7299C48.7864 38.8646 50.3086 44.0224 51.7544 49.2017C52.0562 48.6379 52.2456 47.9644 52.4619 47.3562C53.0689 45.6518 53.8188 43.9939 54.4531 42.3013L55.5933 39.3473C55.9478 38.4141 56.3755 37.2084 56.8525 36.3585C57.2183 37.0276 57.5859 37.6743 57.9209 38.3601C58.4746 39.4936 58.9761 40.781 59.5498 41.8953C61.791 42.0555 64.2114 41.8273 66.3945 41.9114C66.4756 42.5499 66.6055 44.9083 66.4087 45.3903C66.0503 45.6487 60.6162 45.42 59.8491 45.5024C59.6104 45.5281 58.4473 45.5465 58.3184 45.2949C57.8574 44.3922 57.3716 43.3914 57.0049 42.4492C56.6167 43.6819 55.959 45.2244 55.4683 46.4353L52.9912 52.5186C52.6943 53.2402 51.854 55.6372 51.4673 56.1914L51.3662 56.1826C51.2813 56.0361 51.1499 55.4731 51.0874 55.2642C49.2666 49.188 47.4138 43.1208 45.628 37.032C45.2555 35.7618 44.7698 34.7145 44.5895 33.3835C44.348 33.843 44.1611 34.3319 43.9677 34.8136C42.7121 37.9399 41.1803 41.1433 40.0788 44.3166C39.0255 44.3546 37.8476 44.328 36.7855 44.3261L31.4753 44.3268L24.897 44.3287C23.9448 44.3278 22.9734 44.3616 22.0272 44.3344L22.003 45.5181L21.9526 45.5787C21.8518 45.3456 21.8766 44.5775 21.9734 44.3152C22.3477 44.2409 22.69 44.284 23.0612 44.2611C24.0152 44.2022 24.9465 44.235 25.8975 44.2299C29.3125 44.1887 32.7278 44.1886 36.1429 44.2296C36.7938 44.2362 39.4709 44.2939 39.9616 44.1494C40.1865 43.7138 40.5482 42.7334 40.7204 42.257C40.9789 41.5417 42.3522 38.961 42.0603 38.3753C41.602 38.2641 41.6436 38.2778 41.4336 37.8702C41.2417 37.8093 41.3137 37.8213 41.0869 37.9009C41.0467 37.8567 41.0063 37.8127 40.9655 37.769C40.8215 37.6121 40.8401 37.5834 40.6306 37.631L40.4786 37.5236C40.4085 37.6336 39.9963 38.218 39.9226 38.2793L39.8673 38.14C40.8403 35.8041 41.8082 33.4681 42.738 31.1144C42.8184 30.9108 42.912 30.6235 43.042 30.455Z" fill="white"/>
<path d="M43.042 30.455C43.4981 29.4025 43.874 28.284 44.3587 27.2379C44.4808 26.9746 44.5848 26.3948 44.8774 26.3462C45.0443 26.4901 45.7901 29.0385 45.8753 29.4069L45.8153 29.4757C45.6544 29.0171 45.0132 26.7173 44.836 26.4815C44.5537 26.6041 43.5456 30.0951 43.0887 30.4792L43.042 30.455Z" fill="white"/>
<path d="M86.0947 41.9167C87.0395 41.9378 87.981 41.9237 88.9263 41.9308C88.9448 42.0637 88.9595 42.1971 88.9707 42.3309C89.0083 42.7584 89.0879 45.2278 88.8994 45.4528C88.6919 45.532 88.4951 45.5075 88.269 45.504L85.2983 45.4924C85.3218 44.334 85.3042 43.1209 85.3027 41.9585L86.0947 41.9167Z" fill="white"/>
<path d="M70.4419 41.8997C71.2622 41.9638 73.2876 41.8549 73.9058 41.9754C74.0059 42.5543 73.9482 44.7692 73.9438 45.4489C73.7715 45.547 70.7725 45.4994 70.333 45.4989C70.3784 44.4236 70.2974 43.3526 70.3101 42.2795C70.3125 42.0598 70.3145 42.0176 70.4419 41.8997Z" fill="white"/>
<path d="M78.0825 41.9108C79.1665 41.963 80.2998 41.937 81.3867 41.9178C81.4194 42.4006 81.4893 45.2688 81.3677 45.5024L77.8355 45.4971C77.8189 45.0768 77.7949 42.1339 77.8799 41.9567L78.0825 41.9108Z" fill="white"/>
</svg>
